<mxfile host="app.diagrams.net" modified="2023-12-20T00:46:08.844Z" agent="Mozilla/5.0 (Windows NT 10.0; Win64; x64) AppleWebKit/537.36 (KHTML, like Gecko) Chrome/120.0.0.0 Safari/537.36" version="22.1.11" etag="n_ej3lvh1uc6axaOAaTO" type="github">
  <diagram name="Page-1" id="ja974jGBoqj0qVt0NloO">
    <mxGraphModel>
      <root>
        <mxCell id="0" />
        <mxCell id="1" parent="0" />
      </root>
    </mxGraphModel>
  </diagram>
</mxfile>
